<svg xmlns="http://www.w3.org/2000/svg" viewBox="0 0 100 100" fill="none">
  <path fill="#000000" d="M 73.40 79.94 L 74.33 90.21 L 68.74 93.10 L 60.90 86.40 A 38 38 0 0 1 46.91 87.87 L 40.64 96.06 L 34.56 94.39 L 33.34 84.15 A 38 38 0 0 1 22.06 75.75 L 11.90 77.52 L 8.56 72.18 L 14.60 63.82 A 38 38 0 0 1 12.00 50.00 L 3.33 44.41 L 4.50 38.23 L 14.60 36.18 A 38 38 0 0 1 22.06 24.25 L 19.47 14.26 L 24.52 10.51 L 33.34 15.85 A 38 38 0 0 1 46.91 12.13 L 51.77 3.03 L 58.03 3.69 L 60.90 13.60 A 38 38 0 0 1 73.40 20.06 L 66.01 29.51 A 26 26 0 1 0 66.01 70.49 Z"/>
  <path d="M 64.12 37.29 A 19 19 0 0 0 32.78 41.97" fill="none" stroke="#e11d2a" stroke-width="7" stroke-linecap="round"/>
  <path d="M 59.66 58.70 A 13 13 0 0 1 38.22 55.49" fill="none" stroke="#ffffff" stroke-width="5" stroke-linecap="round"/>
</svg>
